<svg xmlns="http://www.w3.org/2000/svg" width="215.49" height="479.501" viewBox="0 0 215.49 479.501">
  <path id="Trazado_34" data-name="Trazado 34" d="M9706,646.916,9579.253,662V786.483l-35.835,39.607s38.207,13.008-9.43,43.379-43.38,50.923-43.38,50.923H9706Z" transform="translate(-9490.511 -440.892)" fill="#281a0c"/>
  <g id="Humano" transform="translate(-563.453 -501.412)">
    <path id="Trazado_14" data-name="Trazado 14" d="M286.152,604.07V632.2L300.6,648.927s6.082-2.281,6.082-17.487l2.281-22.048Z" transform="translate(360.5 25.374)" fill="#a0616a"/>
    <path id="Trazado_15" data-name="Trazado 15" d="M300.6,632.2s-23.569-15.966-24.329-21.288-34.213-29.651-28.891-14.445,22.048,22.048,22.048,22.048,12.925,34.973,24.329,34.213S305.159,637.523,300.6,632.2Z" transform="translate(360.5 25.374)" fill="#a0616a"/>
    <path id="Trazado_16" data-name="Trazado 16" d="M211.783,771.64l2.281,13.685L201.9,782.284V771.64Z" transform="translate(463 57)" fill="#f6f4f4"/>
    <path id="Trazado_17" data-name="Trazado 17" d="M312,810.869s-14.06-8.33-14.633-4.545-6.655,18.23-9.7,19.751-6.843,18.247,0,17.487c5.3-.589,24.738-10.755,33.234-15.31a4.643,4.643,0,0,0,2-6.067,9.58,9.58,0,0,1-1.017-2.952C321.885,817.711,312,810.869,312,810.869Z" transform="translate(360.5 25.374)" fill="#00000f"/>
    <path id="Trazado_18" data-name="Trazado 18" d="M318.844,656.53s-55.5,25.85-50.179,45.617,25.09,103.4,25.09,103.4,22.048,5.322,23.569,0-14.445-88.193-12.925-91.235S334.05,691.5,334.05,691.5l57.782-24.329L367.5,644.365Z" transform="translate(360.5 25.374)" fill="#e99f20"/>
    <path id="Trazado_19" data-name="Trazado 19" d="M174.529,776.2l-6.843,17.487,12.165,5.322,7.6-13.686Z" transform="translate(463 57)" fill="#f6f4f4"/>
    <path id="Trazado_20" data-name="Trazado 20" d="M318.084,531.843s6.843,9.123,1.521,13.685-1.521,21.288-1.521,21.288l6.843,19.007L352.3,580.5V549.33l-1.521-15.206s-13.685-12.925-15.206-22.809S318.084,531.843,318.084,531.843Z" transform="translate(360.5 25.374)" fill="#a0616a"/>
    <path id="Trazado_21" data-name="Trazado 21" d="M318.084,531.843s6.843,9.123,1.521,13.685-1.521,21.288-1.521,21.288l6.843,19.007L352.3,580.5V549.33l-1.521-15.206s-13.685-12.925-15.206-22.809S318.084,531.843,318.084,531.843Z" transform="translate(360.5 25.374)" opacity="0.1"/>
    <path id="Trazado_22" data-name="Trazado 22" d="M363.7,650.448s-35.734,39.535-35.734,41.056S308.96,724.2,308.96,724.2l-37.254,82.871s14.445,19.768,20.528,18.247S341.653,735.6,341.653,735.6s7.6-19.768,28.131-24.329,36.494-20.528,28.891-38.775S363.7,650.448,363.7,650.448Z" transform="translate(360.5 25.374)" fill="#e99f20"/>
    <circle id="Elipse_22" data-name="Elipse 22" cx="24.329" cy="24.329" r="24.329" transform="translate(654.256 513.881)" fill="#a0616a"/>
    <path id="Trazado_23" data-name="Trazado 23" d="M318.844,552.371s3.041,17.487,6.082,19.007,5.322,6.843,12.165-.76,12.925-22.809,12.925-22.809L373.585,576.7l2.281,79.83s-26.61-6.843-34.973,0-26.61,6.082-26.61,6.082l3.8-15.206-3.041-25.85.76-23.569.76-16.726Z" transform="translate(360.5 25.374)" fill="#f2f2f2"/>
    <path id="Trazado_24" data-name="Trazado 24" d="M321.523,539.573s-10.281,5.194-11.042,8.235-14.445,9.123-14.445,9.123-5.322,5.322-5.322,8.363,18.247,38.015,18.247,38.015,3.8,23.569,2.281,28.131,3.041,22.048,3.041,22.048l-9.123,10.644h8.363s9.123-4.562,9.123-6.843-1.521-18.247-2.281-25.089-.76-31.172.76-39.535.76-30.411.76-35.734S321.523,539.573,321.523,539.573Z" transform="translate(360.5 25.374)" fill="#0d3012"/>
    <path id="Trazado_25" data-name="Trazado 25" d="M345.074,528.029s3.421.773,13.3,3.814,25.09,7.6,30.411,13.685a94.247,94.247,0,0,1,9.884,14.445l-3.041,54.741s6.082,11.4,5.322,17.487-6.843,6.843-2.281,19.768S412.359,676.3,404,677.818s-30.411-3.8-40.3-.76-21.288-11.4-21.288-11.4,15.206,1.521,12.925-4.562-27.37-74.508-22.048-89.714S345.074,528.029,345.074,528.029Z" transform="translate(360.5 25.374)" fill="#0d3012"/>
    <path id="Trazado_26" data-name="Trazado 26" d="M294.515,561.494l-3.8,3.041s-10.644,38.014-7.6,41.816,27.37,12.165,28.891,6.843S294.515,561.494,294.515,561.494Z" transform="translate(360.5 25.374)" fill="#0d3012"/>
    <path id="Trazado_27" data-name="Trazado 27" d="M407.038,588.1s11.4,32.692,11.4,41.816-1.521,62.344-1.521,62.344-.76,22.809-16.726,13.685,0-15.206,0-15.206-.76-60.063-6.843-68.426-8.363-20.528-8.363-20.528Z" transform="translate(360.5 25.374)" fill="#a0616a"/>
    <path id="Trazado_28" data-name="Trazado 28" d="M282.35,824.554s-11.4-6.082-13.685-1.521-14.445,29.651-12.925,32.692,9.884,15.206,19.767,12.165,10.644-19.007,10.644-19.007l.76-18.247Z" transform="translate(360.5 25.374)" fill="#00000f"/>
    <path id="Trazado_29" data-name="Trazado 29" d="M313.32,506.959c1.676.789,3.664,1.26,4.717,2.784.78,1.129.858,2.6,1.427,3.845a5.437,5.437,0,0,0,7,2.558,6.032,6.032,0,0,1,2.46-3.736,3.583,3.583,0,0,1,4.254.234c1.567,1.494,1.012,4.1,1.744,6.137a12.954,12.954,0,0,0,2.786,3.82c1.664,1.92,2.99,4.172,4.994,5.734s5.043,2.239,7.034.66c1.674-1.327,2.021-3.776,1.615-5.874s-1.415-4.029-1.983-6.088c-1.848-6.692,1.1-13.836.187-20.718-1.168-8.818-8.663-15.784-17.029-18.807a19.922,19.922,0,0,0-10.994-1.165c-3.826.854-7.094,3.29-10.759,4.683-3.919,1.49-8.18,1.75-12.28,2.621s-8.321,2.555-10.7,6.006c-1.66,2.407-2.23,5.4-3.606,7.977a14.311,14.311,0,0,1-7.249,6.494l4.335-.247a12.776,12.776,0,0,1-3.454,5.041,9.269,9.269,0,0,0,6-.793,6.523,6.523,0,0,1-2.237,4.676c3.336-.1,6.853-.254,9.672-2.041,1.381-.875,2.506-2.094,3.806-3.086,2.769-2.115,6.2-3.118,9.554-4.079,1.759-.5,3.875-1.207,5.466-.076C311.4,504.462,311.607,506.153,313.32,506.959Z" transform="translate(360.5 25.374)" fill="#281a0c"/>
    <path id="Trazado_30" data-name="Trazado 30" d="M387.27,550.85l11.4,9.123,15.206,34.973s-21.288,16.726-26.61,14.445-14.445-42.576-14.445-42.576Z" transform="translate(360.5 25.374)" fill="#0d3012"/>
    <path id="Trazado_31" data-name="Trazado 31" d="M273.91,586.172l-.191,1.4-1.178,8.623-1.929,14.122-.483,3.536a1.126,1.126,0,0,1-1.116.974H256.15a1.127,1.127,0,0,1-1.116-.971l-.491-3.539-1.962-14.122-1.2-8.63-.193-1.389a1.126,1.126,0,0,1,1.116-1.282h20.489a1.127,1.127,0,0,1,1.116,1.279Z" transform="translate(360.5 25.374)" fill="#281a0c"/>
    <rect id="Rectángulo_2" data-name="Rectángulo 2" width="20.093" height="3.742" rx="1.127" transform="translate(613.037 606.526)" fill="#e99f20"/>
    <path id="Trazado_32" data-name="Trazado 32" d="M275.522,586.763a119.242,119.242,0,0,1-25.878,0,1.127,1.127,0,0,1-1.127-1.127v-1.488a1.127,1.127,0,0,1,1.127-1.127,106.028,106.028,0,0,0,25.878,0,1.127,1.127,0,0,1,1.127,1.127v1.488a1.126,1.126,0,0,1-1.127,1.126Z" transform="translate(360.5 25.374)" fill="#e99f20"/>
    <path id="Trazado_33" data-name="Trazado 33" d="M271.142,609.8H253.821a.653.653,0,0,1-.645-.551L251.3,597.461a.653.653,0,0,1,.645-.756h21.188a.653.653,0,0,1,.644.762l-2,11.789A.653.653,0,0,1,271.142,609.8Z" transform="translate(360.5 25.374)" fill="#e99f20"/>
  </g>
</svg>
