<svg xmlns="http://www.w3.org/2000/svg" width="372.254" height="358.747" viewBox="0 0 372.254 358.747">
  <g id="Coffe_image" data-name="Coffe image" transform="translate(-126.501)">
    <path id="Trazado_4" data-name="Trazado 4" d="M749.949,39.083a12.381,12.381,0,0,0-10.672,7.462c-2.668,6.451.767,14.028,5.925,18.731s11.784,7.392,17.8,10.926c8.086,4.747,15.352,11.336,19.4,19.795s4.476,18.936-.28,27.017c-4.414,7.5-12.44,11.989-20.1,16.129" transform="translate(-337.453 -35.066)" fill="none" stroke="#3f3d56" stroke-miterlimit="10" stroke-width="1"/>
    <ellipse id="Elipse_1" data-name="Elipse 1" cx="9.428" cy="4.579" rx="9.428" ry="4.579" transform="translate(409.867)" fill="#281a0c"/>
    <ellipse id="Elipse_2" data-name="Elipse 2" cx="9.428" cy="4.579" rx="9.428" ry="4.579" transform="translate(417.409 30.168)" fill="#281a0c"/>
    <ellipse id="Elipse_3" data-name="Elipse 3" cx="9.428" cy="4.579" rx="9.428" ry="4.579" transform="translate(400.17 35.017)" fill="#281a0c"/>
    <ellipse id="Elipse_4" data-name="Elipse 4" cx="9.428" cy="4.579" rx="9.428" ry="4.579" transform="translate(427.105 60.336)" fill="#281a0c"/>
    <ellipse id="Elipse_5" data-name="Elipse 5" cx="9.428" cy="4.579" rx="9.428" ry="4.579" transform="translate(445.961 60.336)" fill="#281a0c"/>
    <path id="Trazado_5" data-name="Trazado 5" d="M823.552,317.019a12.381,12.381,0,0,0-12.876,1.942c-5.257,4.593-5.546,12.907-3.016,19.413s7.271,11.859,11.094,17.7c5.134,7.846,8.715,16.977,8.58,26.353s-4.405,18.953-12.256,24.078c-7.287,4.757-16.472,5.212-25.17,5.519" transform="translate(-361.236 -162.813)" fill="none" stroke="#3f3d56" stroke-miterlimit="10" stroke-width="1"/>
    <ellipse id="Elipse_6" data-name="Elipse 6" cx="4.579" cy="9.428" rx="4.579" ry="9.428" transform="matrix(0.444, -0.896, 0.896, 0.444, 457.674, 157.643)" fill="#281a0c"/>
    <ellipse id="Elipse_7" data-name="Elipse 7" cx="4.579" cy="9.428" rx="4.579" ry="9.428" transform="matrix(0.444, -0.896, 0.896, 0.444, 451.024, 188.02)" fill="#281a0c"/>
    <ellipse id="Elipse_8" data-name="Elipse 8" cx="4.579" cy="9.428" rx="4.579" ry="9.428" transform="matrix(0.444, -0.896, 0.896, 0.444, 433.426, 184.703)" fill="#281a0c"/>
    <ellipse id="Elipse_9" data-name="Elipse 9" cx="4.579" cy="9.428" rx="4.579" ry="9.428" transform="matrix(0.444, -0.896, 0.896, 0.444, 446.304, 219.355)" fill="#281a0c"/>
    <ellipse id="Elipse_10" data-name="Elipse 10" cx="4.579" cy="9.428" rx="4.579" ry="9.428" transform="matrix(0.444, -0.896, 0.896, 0.444, 463.195, 227.734)" fill="#281a0c"/>
    <path id="Trazado_6" data-name="Trazado 6" d="M400.5,394.952A12.381,12.381,0,0,1,413.186,392c6.582,2.326,9.921,9.946,9.973,16.927s-2.377,13.706-3.772,20.546c-1.873,9.187-1.828,19,1.76,27.659s11.094,15.986,20.283,17.849c8.529,1.729,17.233-1.241,25.428-4.168" transform="translate(-181.61 -197.561)" fill="none" stroke="#3f3d56" stroke-miterlimit="10" stroke-width="1"/>
    <ellipse id="Elipse_11" data-name="Elipse 11" cx="9.428" cy="4.579" rx="9.428" ry="4.579" transform="translate(205.06 206.776) rotate(-48.059)" fill="#281a0c"/>
    <ellipse id="Elipse_12" data-name="Elipse 12" cx="9.428" cy="4.579" rx="9.428" ry="4.579" transform="translate(222.46 232.549) rotate(-48.059)" fill="#281a0c"/>
    <ellipse id="Elipse_13" data-name="Elipse 13" cx="9.428" cy="4.579" rx="9.428" ry="4.579" transform="translate(237.588 222.967) rotate(-48.059)" fill="#281a0c"/>
    <ellipse id="Elipse_14" data-name="Elipse 14" cx="9.428" cy="4.579" rx="9.428" ry="4.579" transform="translate(238.419 259.926) rotate(-48.059)" fill="#281a0c"/>
    <ellipse id="Elipse_15" data-name="Elipse 15" cx="9.428" cy="4.579" rx="9.428" ry="4.579" transform="translate(225.817 273.951) rotate(-48.059)" fill="#281a0c"/>
    <path id="Trazado_7" data-name="Trazado 7" d="M651.649,274.071l-1.481,10.866-9.158,67.049-15,109.8-3.755,27.491a8.757,8.757,0,0,1-8.679,7.574H513.565a8.76,8.76,0,0,1-8.679-7.553l-3.82-27.512-15.251-109.8-9.32-67.1-1.5-10.8a8.757,8.757,0,0,1,8.673-9.966h159.3a8.763,8.763,0,0,1,8.679,9.945Z" transform="translate(-215.935 -138.874)" fill="#281a0c"/>
    <rect id="Rectángulo_1" data-name="Rectángulo 1" width="156.228" height="29.091" rx="14.545" transform="translate(269.531 96.161)" fill="#e99f20"/>
    <path id="Trazado_8" data-name="Trazado 8" d="M650.728,235.646v6.583a8.76,8.76,0,0,1-8.759,8.76H503.26a8.76,8.76,0,0,1-8.76-8.759v-6.567a822.622,822.622,0,0,0,156.228-.016Z" transform="translate(-224.97 -125.737)" fill="#00000f" opacity="0.1"/>
    <circle id="Elipse_16" data-name="Elipse 16" cx="23.704" cy="23.704" r="23.704" transform="translate(282.19 161.077)" fill="#00000f"/>
    <circle id="Elipse_17" data-name="Elipse 17" cx="23.704" cy="23.704" r="23.704" transform="translate(366.23 161.077)" fill="#00000f"/>
    <circle id="Elipse_18" data-name="Elipse 18" cx="6.465" cy="6.465" r="6.465" transform="translate(298.352 178.316)" fill="#f6f4f4"/>
    <circle id="Elipse_19" data-name="Elipse 19" cx="2.694" cy="2.694" r="2.694" transform="translate(311.82 169.696)" fill="#f6f4f4"/>
    <circle id="Elipse_20" data-name="Elipse 20" cx="6.465" cy="6.465" r="6.465" transform="translate(383.469 178.316)" fill="#f6f4f4"/>
    <circle id="Elipse_21" data-name="Elipse 21" cx="2.694" cy="2.694" r="2.694" transform="translate(396.937 169.696)" fill="#f6f4f4"/>
    <path id="Trazado_9" data-name="Trazado 9" d="M651.154,269.783h0l-.008-.019a8.761,8.761,0,0,0-.884-1.716h0c-.106-.159-.217-.312-.333-.464-.038-.051-.078-.1-.118-.15a8.826,8.826,0,0,0-1.117-1.164c-.091-.079-.182-.157-.276-.232s-.212-.167-.322-.246c-.137-.1-.278-.193-.421-.285-.113-.072-.226-.143-.342-.21q-.269-.156-.55-.293c-.089-.043-.18-.084-.271-.124q-.268-.119-.547-.22c-.075-.027-.148-.057-.224-.082q-.385-.128-.786-.221c-.066-.015-.132-.026-.2-.04q-.328-.068-.665-.111c-.081-.01-.162-.021-.244-.029-.288-.029-.578-.048-.874-.048h-159.3A8.783,8.783,0,0,0,475,274.09l.253,1.821,1.245,8.977h0l9.319,67.1h0l12.233,88.075L504.89,489.3a8.759,8.759,0,0,0,8.676,7.554h4.746a8.748,8.748,0,0,1-.493-1.9l-4.607-33.168h112.8l15-109.8H497.963l-9.17-66.024a925.727,925.727,0,0,0,161.378-1.025l1.481-10.866A8.694,8.694,0,0,0,651.154,269.783Z" transform="translate(-215.938 -138.874)" fill="#f6f4f4" opacity="0.1"/>
    <path id="Trazado_10" data-name="Trazado 10" d="M646.46,266.217a927.134,927.134,0,0,1-201.2,0,8.759,8.759,0,0,1-8.759-8.759V245.885a8.759,8.759,0,0,1,8.759-8.759,824.373,824.373,0,0,0,201.2,0,8.759,8.759,0,0,1,8.759,8.759v11.573A8.759,8.759,0,0,1,646.46,266.217Z" transform="translate(-198.215 -126.419)" fill="#e99f20"/>
    <path id="Trazado_11" data-name="Trazado 11" d="M630.914,536.443H496.242a5.079,5.079,0,0,1-5.016-4.283L476.677,440.5a5.079,5.079,0,0,1,5.016-5.875h164.74a5.079,5.079,0,0,1,5.008,5.927l-15.519,91.66A5.079,5.079,0,0,1,630.914,536.443Z" transform="translate(-216.719 -217.522)" fill="#e99f20"/>
    <path id="Trazado_12" data-name="Trazado 12" d="M643.881,498.324a3.589,3.589,0,0,1,1.968,5.991c-8.544,9.108-29.262,28.1-53.463,28.1s-44.919-18.991-53.463-28.1a3.589,3.589,0,0,1,1.968-5.99,284.564,284.564,0,0,1,102.991,0Z" transform="translate(-245.011 -244.738)" fill="#281a0c"/>
    <path id="Trazado_13" data-name="Trazado 13" d="M640.282,510.988a3.589,3.589,0,0,1,1.951,6.1c-5.786,5.642-16.556,14.149-28.886,14.149s-23.1-8.507-28.886-14.149a3.59,3.59,0,0,1,1.951-6.1,164.393,164.393,0,0,1,53.87,0Z" transform="translate(-265.972 -251.722)" fill="#00000f"/>
    <line id="Línea_1" data-name="Línea 1" x2="372.254" transform="translate(126.501 358.247)" fill="none" stroke="#3f3d56" stroke-miterlimit="10" stroke-width="1"/>
  </g>
</svg>
