<svg xmlns="http://www.w3.org/2000/svg" width="385.903" height="364.778" viewBox="0 0 385.903 364.778">
  <g id="Delivery_image" data-name="Delivery image" transform="translate(0)">
    <rect id="Rectángulo_3" data-name="Rectángulo 3" width="260.413" height="1.123" transform="translate(125.489 362.855)" fill="#3f3d56"/>
    <path id="Trazado_35" data-name="Trazado 35" d="M843.249,411.3a5.523,5.523,0,0,1-1.08,8.133l-26.951,18.5-11.867,7.912a3.263,3.263,0,0,1-4.335-.649h0a3.262,3.262,0,0,1,.887-4.887l11.494-6.674,20.061-19.106-12.9-13.851,9.553-7.164Z" transform="translate(-505.946 -239.436)" fill="#a0616a"/>
    <path id="Trazado_36" data-name="Trazado 36" d="M536.063,635.822h-6.593l-3.916-54.45,16.717-.478Z" transform="translate(-262.136 -289.737)" fill="#a0616a"/>
    <path id="Trazado_37" data-name="Trazado 37" d="M741.865,792.126c-1.758.8-3.23-5.7-4.713-4.241-4.148,4.076-10.5,4.963-16.035,3.184l1.938-.022a2.593,2.593,0,0,1-1.634-3.378h0a2.593,2.593,0,0,1,1.8-1.6l4.411-1.1,6.926-12.18,7.07-.478h0a16.891,16.891,0,0,1,3.124,14.41C744.108,789.333,743.118,791.554,741.865,792.126Z" transform="translate(-467.46 -428.369)" fill="#2f2e41"/>
    <path id="Trazado_38" data-name="Trazado 38" d="M623.639,632.97h-6.593l-3.916-54.45,17.195-3.343Z" transform="translate(-305.817 -286.886)" fill="#a0616a"/>
    <path id="Trazado_39" data-name="Trazado 39" d="M829.441,791.651c-1.758.8-3.23-5.7-4.713-4.24-4.147,4.076-10.5,4.963-16.035,3.184l1.938-.022A2.593,2.593,0,0,1,809,787.194h0a2.593,2.593,0,0,1,1.8-1.6l4.411-1.1,6.926-12.18,7.548-.955.191.312a19.461,19.461,0,0,1,2.086,15.913C831.328,789.588,830.474,791.179,829.441,791.651Z" transform="translate(-511.141 -427.894)" fill="#2f2e41"/>
    <path id="Trazado_40" data-name="Trazado 40" d="M840.4,377.432c-6.063.844-10.26,4.164-11.969,10.787l-11.144-20.575a6.092,6.092,0,0,1,1.941-7.737h0a6.092,6.092,0,0,1,8.276,1.211Z" transform="translate(-515.098 -222.124)" fill="#0d3012"/>
    <path id="Trazado_41" data-name="Trazado 41" d="M804.643,554.333c-27.1,11.988-54.824,13.463-83.108,5.731,10.328-40.058,22.524-76.28,22.449-106.034l27.7-2.388,4.265,6.762a150.022,150.022,0,0,1,20.586,52.508Z" transform="translate(-467.668 -268.43)" fill="#2f2e41"/>
    <circle id="Elipse_23" data-name="Elipse 23" cx="14.329" cy="14.329" r="14.329" transform="translate(277.271 95.328)" fill="#a0616a"/>
    <path id="Trazado_42" data-name="Trazado 42" d="M592.787,252.173l-17.672.955-2.866-15.762,14.329-2.388Z" transform="translate(-285.426 -117.202)" fill="#a0616a"/>
    <path id="Trazado_43" data-name="Trazado 43" d="M790.43,401.747l-19.361.545-9.775,1.365c-4.8-15.849-8.837-31.662.955-44.9L773.713,347.3l17.195-.478.228.13a13.847,13.847,0,0,1,6.344,16.109C793.212,376.924,790.471,390.018,790.43,401.747Z" transform="translate(-484.979 -216.147)" fill="#0d3012"/>
    <path id="Trazado_44" data-name="Trazado 44" d="M756.908,471.833l-1.2,16.413a3.656,3.656,0,0,1-3.4,3.381h0a3.656,3.656,0,0,1-3.9-3.735l.382-16.059,11.941-45.375.478-27.7,13.374-.478-.955,32Z" transform="translate(-481.07 -241.813)" fill="#a0616a"/>
    <path id="Trazado_45" data-name="Trazado 45" d="M787.8,377.373c-5.67-2.306-10.966-1.534-15.762,3.343l.657-23.39a6.092,6.092,0,0,1,5.555-5.725h0a6.092,6.092,0,0,1,6.557,5.193Z" transform="translate(-492.859 -218.52)" fill="#0d3012"/>
    <path id="Trazado_46" data-name="Trazado 46" d="M813.6,346.935H769.658c10.251-27.145,13.556-52.4,0-74.033.233-6.5,8.568-12.132,15.04-11.51h0c7.645.735,17.917,6.353,19.349,13.9Z" transform="translate(-491.671 -173.514)" fill="#281a0c"/>
    <path id="Trazado_47" data-name="Trazado 47" d="M396.926,172.8h-2V117.889a31.778,31.778,0,0,0-31.779-31.778H246.816a31.778,31.778,0,0,0-31.778,31.778V419.111a31.778,31.778,0,0,0,31.779,31.779H363.143a31.778,31.778,0,0,0,31.779-31.778V211.879h2Z" transform="translate(-215.038 -86.111)" fill="#3f3d56"/>
    <path id="Trazado_48" data-name="Trazado 48" d="M373.152,102.606H357.967a11.275,11.275,0,0,1-10.439,15.533H280.886a11.275,11.275,0,0,1-10.439-15.533H256.265a23.732,23.732,0,0,0-23.732,23.732V427.117a23.732,23.732,0,0,0,23.732,23.732H373.152a23.732,23.732,0,0,0,23.732-23.732V126.338a23.732,23.732,0,0,0-23.732-23.732Z" transform="translate(-223.764 -94.338)" fill="#fff"/>
    <rect id="Rectángulo_4" data-name="Rectángulo 4" width="123.301" height="105.758" transform="translate(29.294 55.252)" fill="#e6e6e6"/>
    <circle id="Elipse_24" data-name="Elipse 24" cx="9.022" cy="9.022" r="9.022" transform="translate(56.861 165.019)" fill="#0d3012"/>
    <path id="Trazado_49" data-name="Trazado 49" d="M131.467,341.993h-3.759v-3.759h-1.5v3.759h-3.759v1.5H126.2v3.759h1.5V343.5h3.759Z" transform="translate(-61.073 -168.704)" fill="#fff"/>
    <circle id="Elipse_25" data-name="Elipse 25" cx="9.022" cy="9.022" r="9.022" transform="translate(104.477 165.019)" fill="#0d3012"/>
    <rect id="Rectángulo_5" data-name="Rectángulo 5" width="1.504" height="9.022" transform="translate(118.01 173.289) rotate(90)" fill="#fff"/>
    <path id="Trazado_50" data-name="Trazado 50" d="M394.676,222.66h-9.744a1.292,1.292,0,0,0-1.292,1.292v4.277a1.292,1.292,0,0,0,1.292,1.292h1.615v6.408h6.514V229.52h1.615a1.292,1.292,0,0,0,1.292-1.292v-4.277a1.292,1.292,0,0,0-1.292-1.291Z" transform="translate(-299.133 -154.219)" fill="#e99f20"/>
    <path id="Trazado_51" data-name="Trazado 51" d="M395.509,268.308a50.1,50.1,0,0,1-8.715-29.7,1.057,1.057,0,0,0-.825-1.054v-1.848H375.679v1.822h-.142a1.056,1.056,0,0,0-1.055,1.057q0,.038,0,.077a45.717,45.717,0,0,1-8.213,30.4,2.91,2.91,0,0,0-.527,1.764l1.125,34.807a3.013,3.013,0,0,0,2.987,2.908h23.276a3.014,3.014,0,0,0,2.989-2.959l.434-33.795a6.1,6.1,0,0,0-1.048-3.482Z" transform="translate(-290.207 -160.725)" fill="#3f3d56"/>
    <path id="Trazado_52" data-name="Trazado 52" d="M396.058,225.44a2.787,2.787,0,0,1-5.574,0" transform="translate(-302.547 -155.605)" opacity="0.2"/>
    <path id="Trazado_53" data-name="Trazado 53" d="M395.547,317.58h-2.819a7.4,7.4,0,0,0-14.623,0h-2.819a2.08,2.08,0,0,0-2.056,2.4l3.062,19.9h17.58l3.719-19.833a2.08,2.08,0,0,0-2.044-2.463Z" transform="translate(-293.929 -198.435)" fill="#e99f20"/>
    <rect id="Rectángulo_6" data-name="Rectángulo 6" width="123.301" height="105.758" transform="translate(29.294 204.115)" fill="#e6e6e6"/>
    <circle id="Elipse_26" data-name="Elipse 26" cx="9.022" cy="9.022" r="9.022" transform="translate(56.861 313.882)" fill="#0d3012"/>
    <path id="Trazado_54" data-name="Trazado 54" d="M131.467,638.993h-3.759v-3.759h-1.5v3.759h-3.759v1.5H126.2v3.759h1.5V640.5h3.759Z" transform="translate(-61.073 -316.841)" fill="#fff"/>
    <circle id="Elipse_27" data-name="Elipse 27" cx="9.022" cy="9.022" r="9.022" transform="translate(104.477 313.882)" fill="#0d3012"/>
    <rect id="Rectángulo_7" data-name="Rectángulo 7" width="1.504" height="9.022" transform="translate(118.01 322.152) rotate(90)" fill="#fff"/>
    <path id="Trazado_55" data-name="Trazado 55" d="M383.134,584.575h.068a11.548,11.548,0,0,0,10.813-7.243,37.8,37.8,0,1,0-50.356,20.706,11.45,11.45,0,0,0,12.716-2.358A37.675,37.675,0,0,1,383.134,584.575Z" transform="translate(-267.917 -305.329)" fill="#fff"/>
    <circle id="Elipse_28" data-name="Elipse 28" cx="12.483" cy="12.483" r="12.483" transform="translate(83.315 242.836)" fill="#f9a825"/>
  </g>
</svg>
